<mxfile host="app.diagrams.net" agent="Mozilla/5.0 (Windows NT 10.0; Win64; x64) AppleWebKit/537.36 (KHTML, like Gecko) Chrome/128.0.0.0 Safari/537.36 Edg/128.0.0.0" version="24.7.8">
  <diagram name="Page-1" id="HOQuzXsQhKWk7F0zC7G7">
    <mxGraphModel dx="1042" dy="567" grid="1" gridSize="10" guides="1" tooltips="1" connect="1" arrows="1" fold="1" page="1" pageScale="1" pageWidth="850" pageHeight="1100" math="0" shadow="0">
      <root>
        <mxCell id="0" />
        <mxCell id="1" parent="0" />
        <mxCell id="YiVMzRiNnhLtgKxliy0t-3" value="" style="shape=dataStorage;whiteSpace=wrap;html=1;fixedSize=1;rotation=-180;fillColor=#000000;" vertex="1" parent="1">
          <mxGeometry x="280" y="190" width="100" height="80" as="geometry" />
        </mxCell>
        <mxCell id="YiVMzRiNnhLtgKxliy0t-1" value="" style="whiteSpace=wrap;html=1;aspect=fixed;fillColor=#99004D;" vertex="1" parent="1">
          <mxGeometry x="70" y="190" width="90" height="90" as="geometry" />
        </mxCell>
        <mxCell id="YiVMzRiNnhLtgKxliy0t-2" value="" style="endArrow=classic;html=1;rounded=0;" edge="1" parent="1">
          <mxGeometry width="50" height="50" relative="1" as="geometry">
            <mxPoint x="190" y="229.5" as="sourcePoint" />
            <mxPoint x="280" y="229.5" as="targetPoint" />
            <Array as="points">
              <mxPoint x="230" y="229.5" />
            </Array>
          </mxGeometry>
        </mxCell>
        <mxCell id="YiVMzRiNnhLtgKxliy0t-4" value="" style="shape=dataStorage;whiteSpace=wrap;html=1;fixedSize=1;rotation=-180;fillColor=#FF30CF;" vertex="1" parent="1">
          <mxGeometry x="320" y="190" width="100" height="80" as="geometry" />
        </mxCell>
        <mxCell id="YiVMzRiNnhLtgKxliy0t-6" value="" style="shape=dataStorage;whiteSpace=wrap;html=1;fixedSize=1;rotation=-180;fillColor=#2EFF4A;" vertex="1" parent="1">
          <mxGeometry x="360" y="190" width="100" height="80" as="geometry" />
        </mxCell>
        <mxCell id="YiVMzRiNnhLtgKxliy0t-8" value="" style="endArrow=classic;html=1;rounded=0;" edge="1" parent="1">
          <mxGeometry width="50" height="50" relative="1" as="geometry">
            <mxPoint x="470" y="229.5" as="sourcePoint" />
            <mxPoint x="570" y="229.5" as="targetPoint" />
          </mxGeometry>
        </mxCell>
        <mxCell id="YiVMzRiNnhLtgKxliy0t-10" value="" style="shape=cube;whiteSpace=wrap;html=1;boundedLbl=1;backgroundOutline=1;darkOpacity=0.05;darkOpacity2=0.1;fillColor=#f8cecc;strokeColor=#b85450;" vertex="1" parent="1">
          <mxGeometry x="580" y="190" width="120" height="80" as="geometry" />
        </mxCell>
        <mxCell id="YiVMzRiNnhLtgKxliy0t-11" value="" style="endArrow=classic;html=1;rounded=0;exitX=0.483;exitY=1.03;exitDx=0;exitDy=0;exitPerimeter=0;" edge="1" parent="1" source="YiVMzRiNnhLtgKxliy0t-10">
          <mxGeometry width="50" height="50" relative="1" as="geometry">
            <mxPoint x="400" y="320" as="sourcePoint" />
            <mxPoint x="490" y="360" as="targetPoint" />
            <Array as="points">
              <mxPoint x="640" y="360" />
            </Array>
          </mxGeometry>
        </mxCell>
        <mxCell id="YiVMzRiNnhLtgKxliy0t-12" value="" style="whiteSpace=wrap;html=1;aspect=fixed;fillColor=#000033;" vertex="1" parent="1">
          <mxGeometry x="400" y="320" width="80" height="80" as="geometry" />
        </mxCell>
        <mxCell id="YiVMzRiNnhLtgKxliy0t-14" value="&lt;font style=&quot;font-size: 14px;&quot;&gt;Latent Space&lt;/font&gt;" style="text;strokeColor=none;fillColor=none;html=1;fontSize=24;fontStyle=1;verticalAlign=middle;align=center;" vertex="1" parent="1">
          <mxGeometry x="65" y="290" width="100" height="40" as="geometry" />
        </mxCell>
        <mxCell id="YiVMzRiNnhLtgKxliy0t-15" value="&lt;span style=&quot;font-size: 14px;&quot;&gt;Generator&lt;/span&gt;" style="text;strokeColor=none;fillColor=none;html=1;fontSize=24;fontStyle=1;verticalAlign=middle;align=center;" vertex="1" parent="1">
          <mxGeometry x="320" y="140" width="100" height="40" as="geometry" />
        </mxCell>
        <mxCell id="YiVMzRiNnhLtgKxliy0t-16" value="&lt;span style=&quot;font-size: 14px;&quot;&gt;Black Box&lt;/span&gt;" style="text;strokeColor=none;fillColor=none;html=1;fontSize=24;fontStyle=1;verticalAlign=middle;align=center;" vertex="1" parent="1">
          <mxGeometry x="590" y="140" width="100" height="40" as="geometry" />
        </mxCell>
        <mxCell id="YiVMzRiNnhLtgKxliy0t-17" value="&lt;span style=&quot;font-size: 14px;&quot;&gt;Output&lt;/span&gt;" style="text;strokeColor=none;fillColor=none;html=1;fontSize=24;fontStyle=1;verticalAlign=middle;align=center;" vertex="1" parent="1">
          <mxGeometry x="390" y="420" width="100" height="40" as="geometry" />
        </mxCell>
      </root>
    </mxGraphModel>
  </diagram>
</mxfile>
